<?xml version="1.0" standalone="no"?>
<!DOCTYPE svg PUBLIC "-//W3C//DTD SVG 20010904//EN"
 "http://www.w3.org/TR/2001/REC-SVG-20010904/DTD/svg10.dtd">
<svg version="1.0" xmlns="http://www.w3.org/2000/svg"
 width="1000.000000pt" height="1000.000000pt" viewBox="0 0 1000.000000 1000.000000"
 preserveAspectRatio="xMidYMid meet">
<metadata>
Created by potrace 1.11, written by Peter Selinger 2001-2013
</metadata>
<g transform="translate(0.000000,1000.000000) scale(0.100000,-0.100000)"
fill="#000000" stroke="none">
<path d="M850 7407 c0 -2 -27 -120 -60 -262 -33 -142 -60 -264 -60 -272 0 -11
113 -13 654 -13 523 0 678 -3 768 -15 311 -41 520 -157 613 -340 35 -69 39
-83 43 -177 5 -125 -12 -206 -67 -322 -134 -285 -433 -467 -871 -530 -113 -16
-510 -33 -510 -22 0 4 61 272 135 596 74 324 135 594 135 600 0 7 -149 9 -477
8 l-477 -3 -203 -875 c-111 -481 -202 -876 -203 -877 -1 -9 1495 -1 1595 8
760 65 1449 413 1773 896 64 95 129 237 154 334 18 75 20 102 15 269 -6 188
-24 304 -62 394 -25 60 0 95 29 39 7 -16 206 -584 441 -1263 235 -679 430
-1241 434 -1248 5 -9 376 412 1107 1257 l1099 1270 650 0 c690 1 768 -3 939
-49 193 -51 344 -152 419 -281 114 -195 51 -507 -144 -713 -158 -167 -365
-270 -654 -326 -106 -20 -360 -40 -523 -40 l-83 0 6 33 c4 17 66 286 139 597
73 311 131 568 129 573 -2 4 -217 7 -478 7 l-473 0 -5 -22 c-34 -138 -397
-1718 -397 -1727 0 -14 1411 -15 1585 -1 614 52 1186 287 1556 638 213 202
331 400 380 637 115 553 -329 1032 -1090 1179 -227 44 -290 46 -1435 46
l-1091 0 -333 -403 c-459 -557 -735 -910 -875 -1120 -48 -71 -67 -93 -71 -80
-2 10 -10 45 -17 78 -22 114 -89 332 -286 928 l-197 597 -1828 0 c-1005 0
-1828 -2 -1828 -3z"/>
<path d="M4245 4304 c-2340 -37 -4134 -310 -4240 -645 -77 -242 754 -474 2158
-604 873 -80 1697 -110 2782 -102 814 7 1185 20 1845 68 1444 103 2446 319
2566 551 159 307 -1083 587 -3071 693 -550 29 -1503 47 -2040 39z m600 -474
c300 -23 543 -71 657 -132 65 -34 81 -55 76 -96 -9 -76 -235 -151 -583 -194
-176 -21 -823 -18 -995 5 -426 57 -626 152 -522 249 64 60 232 112 462 143
260 34 635 45 905 25z"/>
<path d="M8537 2993 c-4 -3 -7 -15 -7 -25 0 -15 8 -18 55 -18 65 0 62 17 35
-184 -27 -198 -27 -198 8 -194 30 3 27 -9 62 276 l12 102 59 0 c56 0 59 1 59
25 l0 25 -138 0 c-76 0 -142 -3 -145 -7z"/>
<path d="M8925 2988 c-17 -51 -125 -407 -125 -413 0 -3 10 -5 23 -3 19 3 29
23 72 155 28 83 52 154 55 157 3 3 19 -57 34 -132 16 -75 32 -145 36 -155 4
-14 27 23 86 136 l79 156 6 -72 c4 -40 7 -111 8 -159 1 -87 1 -88 26 -88 l25
0 0 215 0 215 -24 0 c-21 0 -34 -18 -98 -140 -40 -77 -75 -140 -79 -140 -3 0
-20 63 -39 140 -32 130 -36 140 -57 140 -13 0 -26 -6 -28 -12z"/>
</g>
</svg>
